<?xml version="1.0" encoding="utf-8"?>
<svg id="master-artboard" viewBox="0 0 450 450" version="1.1" xmlns="http://www.w3.org/2000/svg" x="0px" y="0px" style="enable-background:new 0 0 1400 980;" width="450px" height="450px"><rect id="ee-background" x="0" y="0" width="450" height="450" style="fill: white; fill-opacity: 0; pointer-events: none;"/>

<path d="M 455.000015 709 A 193.800003 193.800003 0 0 1 261.200012 902.800003 A 193.800003 193.800003 0 0 1 67.400009 709 A 193.800003 193.800003 0 0 1 261.200012 515.199997 A 193.800003 193.800003 0 0 1 455.000015 709 Z" class="st1" style="fill: rgb(241, 95, 66);" transform="matrix(1, 0, 0, 1, -36.60287299509844, -485.5981150683051)"/><path class="st3" d="M392.7,671.6c0,0-0.1-0.1-0.1-0.1l1.7-4.8c0.4,0.7,0.8,1.3,1.1,2l12.6-35.6l-65.9-27.9h-32.9&#10;&#9;&#9;c0,0-0.3,1.1-1,2.9h-1.9c0,0-0.3,1.1-1,2.9h-1.9c0,0-0.3,1.1-1,2.9h-1.9c0,0-0.3,1.1-1,2.9h-1.9c0,0-0.3,1.1-1,2.9H295&#10;&#9;&#9;c0,0-0.3,1.1-1,2.9h-1.9c0,0-0.3,1.1-1,2.9h-1.9c0,0-0.3,1.1-1,2.9h-1.9c0,0-0.3,1.1-1,2.9h-1.9c0,0-0.3,1.1-1,2.9h-1.9&#10;&#9;&#9;c0,0-0.3,1.1-1,2.9h-1.9c0,0-0.3,1.1-1,2.9H275c0,0-0.3,1.1-1,2.9h-1.9c0,0-0.3,1.1-1,2.9h-1.9c0,0-0.3,1.1-1,2.9h-1.9&#10;&#9;&#9;c0,0-0.3,1.1-1,2.9h-1.9c0,0-0.1,0.3-0.2,0.7c-0.7,0.1-1.4,0.2-2.1,0.3c-35.5-3.8-48.1-46.9-48.1-46.9h-32.9l-65.9,27.9l0.5,1.4&#10;&#9;&#9;l-3.4,1.4l0.5,1.4l-3.4,1.4l0.5,1.4l-3.4,1.4l0.5,1.4l-3.4,1.4l0.5,1.4l-3.4,1.4l0.5,1.4l-3.4,1.4l0.5,1.4l-3.4,1.4l0.5,1.4&#10;&#9;&#9;l-3.4,1.4l0.5,1.4l-3.4,1.4l0.5,1.4l-3.4,1.4l0.5,1.4l-3.4,1.4l0.5,1.4l-3.4,1.4l0.5,1.4l-3.4,1.4l0.5,1.4l-3.4,1.4l0.5,1.4&#10;&#9;&#9;l-3.4,1.4l0.5,1.4l-2,0.9c-1.6,10-2.4,20.2-2.4,30.6c0,107,86.8,193.8,193.8,193.8c10.6,0,21-0.9,31.2-2.5c1-0.9,2-1.8,2.9-2.9&#10;&#9;&#9;c1-0.9,2-1.8,2.9-2.9c1-0.9,2-1.8,2.9-2.9c1-0.9,2-1.8,2.9-2.9c1-0.9,2-1.8,2.9-2.9c1-0.9,2-1.8,2.9-2.9c1-0.9,2-1.8,2.9-2.9&#10;&#9;&#9;c1-0.9,2-1.8,2.9-2.9c1-0.9,2-1.8,2.9-2.9c1-0.9,2-1.8,2.9-2.9c1-0.9,2-1.8,2.9-2.9c1-0.9,2-1.8,2.9-2.9c1-0.9,2-1.8,2.9-2.9&#10;&#9;&#9;c1-0.9,2-1.8,2.9-2.9c1-0.9,2-1.8,2.9-2.9c1-0.9,2-1.8,2.9-2.9c1-0.9,2-1.8,2.9-2.9c1-0.9,2-1.8,2.9-2.9c1-0.9,2-1.8,2.9-2.9&#10;&#9;&#9;c1-0.9,2-1.8,2.9-2.9c1-0.9,2-1.8,2.9-2.9c1-0.9,2-1.8,2.9-2.9c1-0.9,2-1.8,2.9-2.9c1-0.9,2-1.8,2.9-2.9c1-0.9,2-1.8,2.9-2.9&#10;&#9;&#9;c1-0.9,2-1.8,2.9-2.9c1-0.9,2-1.8,2.9-2.9c1-0.9,2-1.8,2.9-2.9c5.6-4.7,8.6-11.7,9-20.1c0.4-10.4-12.6-32.9-21.6-47.1&#10;&#9;&#9;c0.7-0.6,1.3-1.3,1.9-2c1.1-0.9,2-1.8,2.9-2.9c1.1-0.9,2-1.8,2.9-2.9c1.1-0.9,2-1.8,2.9-2.9c1.1-0.9,2-1.8,2.9-2.9&#10;&#9;&#9;c1.1-0.9,2-1.8,2.9-2.9c1.1-0.9,2-1.8,2.9-2.9c1.1-0.9,2-1.8,2.9-2.9c1.1-0.9,2-1.8,2.9-2.9c1.1-0.9,2-1.8,2.9-2.9&#10;&#9;&#9;c1.1-0.9,2-1.8,2.9-2.9c1.1-0.9,2-1.8,2.9-2.9c1.1-0.9,2-1.8,2.9-2.9c4.8-3.9,7.4-9.8,7.7-16.9&#10;&#9;&#9;C404.2,693.3,398.6,681.9,392.7,671.6z" style="fill: rgb(238, 49, 39);" transform="matrix(1, 0, 0, 1, -36.60287299509844, -485.5981150683051)"/><path class="st4" d="M379.2,650.1c0,0-9.3,13.4-16.5,26.9c-4.6,8.7-8.4,17.4-8.2,22.6c0.5,13.2,8.9,22.1,24.7,22.1&#10;&#9;&#9;&#9;c15.8,0,24.2-8.9,24.7-22.1c0.2-6.2-5.3-17.6-11.2-28C386.2,660.2,379.2,650.1,379.2,650.1z" style="fill: rgb(255, 255, 255);" transform="matrix(1, 0, 0, 1, -36.60287299509844, -485.5981150683051)"/><path class="st4" d="M309.3,605.2c0,0-12.7,43.1-48.1,46.9c-35.5-3.8-48.1-46.9-48.1-46.9h-32.9l-65.9,27.9l21.5,60.8l44.3-30.4&#10;&#9;&#9;&#9;l13.9,38L180.2,823h81H329c-8.6-4.4-13.3-12.6-13.8-23.1c-0.4-9.6,10.6-29.4,19.4-43.6l-6.3-54.9l13.9-38l17.1,11.7&#10;&#9;&#9;&#9;c8.7-16.2,19.9-32.3,19.9-32.3s8.4,12.1,16.3,25.9l12.6-35.6l-65.9-27.9H309.3z M320.7,729.1c-0.6,15.8-10.8,26.6-29.8,26.6&#10;&#9;&#9;&#9;c-19,0-29.1-10.8-29.8-26.6c-0.6-15.8,29.8-59.5,29.8-59.5S321.4,713.3,320.7,729.1z" style="fill: rgb(255, 255, 255);" transform="matrix(1, 0, 0, 1, -36.60287299509844, -485.5981150683051)"/><path class="st4" d="M341.4,756.4c-8.7,14.1-19.8,34-19.4,43.6c0.4,10.5,5.1,18.7,13.8,23.1c4.4,2.2,9.6,3.5,16,3.5&#10;&#9;&#9;&#9;c19,0,29.1-10.8,29.8-26.6c0.6-15.8-29.8-59.5-29.8-59.5S347.1,747.2,341.4,756.4z" style="fill: rgb(255, 255, 255);" transform="matrix(1, 0, 0, 1, -36.60287299509844, -485.5981150683051)"/><path class="st4" d="M266.2,729.1c0.5,13.6,9.2,22.8,25.5,22.8c16.3,0,25-9.2,25.5-22.8c0.5-13.6-25.5-51.1-25.5-51.1&#10;&#9;&#9;&#9;S265.7,715.5,266.2,729.1z" style="fill: rgb(255, 255, 255);" transform="matrix(1, 0, 0, 1, -36.60287299509844, -485.5981150683051)"/>

</svg>